<svg width="41" height="40" viewBox="0 0 41 40" fill="none" xmlns="http://www.w3.org/2000/svg">
<path d="M26.8486 18.8166L17.4153 9.39998C17.2603 9.24377 17.076 9.11978 16.8729 9.03516C16.6698 8.95055 16.452 8.90698 16.232 8.90698C16.0119 8.90698 15.7941 8.95055 15.591 9.03516C15.3879 9.11978 15.2036 9.24377 15.0486 9.39998C14.7382 9.71225 14.564 10.1347 14.564 10.575C14.564 11.0153 14.7382 11.4377 15.0486 11.75L23.2986 20.0833L15.0486 28.3333C14.7382 28.6456 14.564 29.068 14.564 29.5083C14.564 29.9486 14.7382 30.371 15.0486 30.6833C15.203 30.8408 15.3871 30.9661 15.5902 31.0519C15.7933 31.1377 16.0114 31.1824 16.232 31.1833C16.4525 31.1824 16.6706 31.1377 16.8737 31.0519C17.0769 30.9661 17.2609 30.8408 17.4153 30.6833L26.8486 21.2666C27.0178 21.1106 27.1528 20.9212 27.2452 20.7103C27.3375 20.4995 27.3852 20.2718 27.3852 20.0416C27.3852 19.8115 27.3375 19.5838 27.2452 19.373C27.1528 19.1621 27.0178 18.9727 26.8486 18.8166Z" fill="#9EA9BE"/>
</svg>
