<svg width="41" height="40" viewBox="0 0 41 40" fill="none" xmlns="http://www.w3.org/2000/svg">
<path d="M14.2876 21.1834L23.7209 30.6C23.8759 30.7562 24.0602 30.8802 24.2633 30.9648C24.4664 31.0495 24.6843 31.093 24.9043 31.093C25.1243 31.093 25.3421 31.0495 25.5452 30.9648C25.7483 30.8802 25.9327 30.7562 26.0876 30.6C26.398 30.2877 26.5723 29.8653 26.5723 29.425C26.5723 28.9847 26.398 28.5623 26.0876 28.25L17.8376 19.9167L26.0876 11.6667C26.398 11.3544 26.5723 10.932 26.5723 10.4917C26.5723 10.0514 26.398 9.62896 26.0876 9.31669C25.9333 9.15921 25.7492 9.03392 25.5461 8.9481C25.3429 8.86227 25.1248 8.8176 24.9043 8.81669C24.6838 8.8176 24.4656 8.86227 24.2625 8.9481C24.0594 9.03392 23.8753 9.15921 23.7209 9.31669L14.2876 18.7334C14.1184 18.8894 13.9834 19.0788 13.8911 19.2897C13.7987 19.5005 13.7511 19.7282 13.7511 19.9584C13.7511 20.1885 13.7987 20.4162 13.8911 20.627C13.9834 20.8379 14.1184 21.0273 14.2876 21.1834Z" fill="#9EA9BE"/>
</svg>
