<svg width="80" height="81" viewBox="0 0 80 81" fill="none" xmlns="http://www.w3.org/2000/svg">
<g filter="url(#filter0_d_427_731)">
<circle cx="40" cy="36.1709" r="24" fill="#2E78F5"/>
<circle cx="40" cy="36.1709" r="23.5" stroke="#2E78F5"/>
</g>
<path d="M49.8127 29.1243C49.6767 28.9871 49.5148 28.8783 49.3365 28.804C49.1581 28.7297 48.9669 28.6914 48.7737 28.6914C48.5805 28.6914 48.3892 28.7297 48.2108 28.804C48.0325 28.8783 47.8706 28.9871 47.7346 29.1243L36.8315 40.042L32.2508 35.4466C32.1095 35.3102 31.9428 35.2029 31.76 35.1308C31.5773 35.0588 31.3822 35.0235 31.1858 35.0269C30.9895 35.0303 30.7957 35.0724 30.6156 35.1506C30.4354 35.2289 30.2725 35.3419 30.136 35.4832C29.9996 35.6245 29.8923 35.7912 29.8203 35.9739C29.7483 36.1567 29.713 36.3518 29.7163 36.5481C29.7197 36.7445 29.7618 36.9383 29.8401 37.1184C29.9184 37.2985 30.0314 37.4615 30.1726 37.5979L35.7924 43.2178C35.9285 43.3549 36.0904 43.4638 36.2687 43.5381C36.447 43.6124 36.6383 43.6507 36.8315 43.6507C37.0247 43.6507 37.216 43.6124 37.3944 43.5381C37.5727 43.4638 37.7346 43.3549 37.8706 43.2178L49.8127 31.2756C49.9613 31.1386 50.0798 30.9723 50.1609 30.7871C50.242 30.602 50.2839 30.4021 50.2839 30.2C50.2839 29.9979 50.242 29.7979 50.1609 29.6128C50.0798 29.4277 49.9613 29.2614 49.8127 29.1243Z" fill="white"/>
<defs>
<filter id="filter0_d_427_731" x="0" y="0.170898" width="80" height="80" filterUnits="userSpaceOnUse" color-interpolation-filters="sRGB">
<feFlood flood-opacity="0" result="BackgroundImageFix"/>
<feColorMatrix in="SourceAlpha" type="matrix" values="0 0 0 0 0 0 0 0 0 0 0 0 0 0 0 0 0 0 127 0" result="hardAlpha"/>
<feOffset dy="4"/>
<feGaussianBlur stdDeviation="8"/>
<feComposite in2="hardAlpha" operator="out"/>
<feColorMatrix type="matrix" values="0 0 0 0 0.180392 0 0 0 0 0.470588 0 0 0 0 0.960784 0 0 0 0.36 0"/>
<feBlend mode="normal" in2="BackgroundImageFix" result="effect1_dropShadow_427_731"/>
<feBlend mode="normal" in="SourceGraphic" in2="effect1_dropShadow_427_731" result="shape"/>
</filter>
</defs>
</svg>
