<svg width="25" height="25" viewBox="0 0 25 25" fill="none" xmlns="http://www.w3.org/2000/svg">
<path d="M17.2387 8.77481C17.1726 8.70811 17.0939 8.65518 17.0071 8.61905C16.9204 8.58293 16.8274 8.56433 16.7335 8.56433C16.6396 8.56433 16.5466 8.58293 16.4599 8.61905C16.3731 8.65518 16.2945 8.70811 16.2283 8.77481L10.9273 14.083L8.70012 11.8487C8.63144 11.7824 8.55037 11.7302 8.46153 11.6952C8.37268 11.6602 8.27782 11.643 8.18234 11.6446C8.08687 11.6463 7.99265 11.6667 7.90507 11.7048C7.8175 11.7429 7.73828 11.7978 7.67193 11.8665C7.60559 11.9352 7.55342 12.0162 7.51841 12.1051C7.4834 12.1939 7.46623 12.2888 7.46788 12.3843C7.46953 12.4797 7.48998 12.574 7.52804 12.6615C7.5661 12.7491 7.62104 12.8283 7.68972 12.8947L10.4221 15.627C10.4882 15.6937 10.5669 15.7466 10.6536 15.7828C10.7403 15.8189 10.8333 15.8375 10.9273 15.8375C11.0212 15.8375 11.1142 15.8189 11.2009 15.7828C11.2876 15.7466 11.3663 15.6937 11.4325 15.627L17.2387 9.82078C17.3109 9.75415 17.3686 9.67328 17.408 9.58327C17.4474 9.49326 17.4678 9.39606 17.4678 9.29779C17.4678 9.19953 17.4474 9.10233 17.408 9.01232C17.3686 8.92231 17.3109 8.84144 17.2387 8.77481Z" fill="white"/>
</svg>
