<svg width="25" height="25" viewBox="0 0 25 25" fill="none" xmlns="http://www.w3.org/2000/svg">
<path d="M21.9695 19.1461C22.5962 18.3061 23.0263 17.336 23.228 16.3075C23.4296 15.2791 23.3978 14.2184 23.1348 13.2039C22.8718 12.1894 22.3844 11.2468 21.7085 10.4459C21.0325 9.64488 20.1854 9.00592 19.2295 8.57611C19.0213 7.37821 18.5428 6.24353 17.8303 5.25828C17.1179 4.27303 16.1902 3.46314 15.1178 2.89014C14.0455 2.31714 12.8566 1.99611 11.6415 1.95145C10.4265 1.90678 9.21727 2.13965 8.10572 2.63237C6.99417 3.12508 6.00956 3.86468 5.22668 4.79496C4.44381 5.72524 3.88328 6.82173 3.58768 8.0011C3.29209 9.18048 3.2692 10.4117 3.52076 11.6013C3.77233 12.7908 4.29173 13.9074 5.03949 14.8661L3.64949 16.2461C3.51073 16.3867 3.41673 16.5653 3.37936 16.7593C3.34199 16.9533 3.36291 17.154 3.43949 17.3361C3.51451 17.5187 3.64191 17.6751 3.80563 17.7854C3.96935 17.8957 4.16206 17.9551 4.35949 17.9561H10.0495C10.6161 19.1507 11.5095 20.1604 12.6262 20.8683C13.7429 21.5762 15.0373 21.9534 16.3595 21.9561H22.3595C22.5569 21.9551 22.7496 21.8957 22.9133 21.7854C23.0771 21.6751 23.2045 21.5187 23.2795 21.3361C23.3561 21.154 23.377 20.9533 23.3396 20.7593C23.3022 20.5653 23.2082 20.3867 23.0695 20.2461L21.9695 19.1461ZM9.35949 14.9561C9.36086 15.291 9.3876 15.6253 9.43949 15.9561H6.76949L7.11949 15.6161C7.21322 15.5231 7.28761 15.4125 7.33838 15.2907C7.38915 15.1688 7.41529 15.0381 7.41529 14.9061C7.41529 14.7741 7.38915 14.6434 7.33838 14.5215C7.28761 14.3997 7.21322 14.2891 7.11949 14.1961C6.55905 13.6418 6.11474 12.9813 5.81254 12.2533C5.51034 11.5253 5.35633 10.7443 5.35949 9.95611C5.35949 8.36481 5.99163 6.83869 7.11685 5.71347C8.24207 4.58825 9.76819 3.95611 11.3595 3.95611C12.6012 3.94865 13.814 4.33049 14.8274 5.04797C15.8409 5.76545 16.604 6.78249 17.0095 7.95611H16.3595C14.503 7.95611 12.7225 8.69361 11.4097 10.0064C10.097 11.3191 9.35949 13.0996 9.35949 14.9561ZM19.8995 19.9561L19.9495 20.0061H16.3595C15.2028 20.004 14.0827 19.601 13.1898 18.8657C12.297 18.1304 11.6867 17.1083 11.4629 15.9735C11.2391 14.8386 11.4157 13.6613 11.9626 12.6421C12.5094 11.6229 13.3928 10.8248 14.462 10.3838C15.5313 9.9428 16.7205 9.88616 17.8268 10.2235C18.9332 10.5609 19.8884 11.2714 20.5296 12.2341C21.1709 13.1967 21.4586 14.3519 21.3437 15.5028C21.2288 16.6537 20.7184 17.7293 19.8995 18.5461C19.7111 18.7307 19.6032 18.9823 19.5995 19.2461C19.6 19.3784 19.6268 19.5093 19.6783 19.6312C19.7298 19.753 19.805 19.8635 19.8995 19.9561Z" fill="#2E78F5"/>
</svg>
