<svg width="27" height="27" viewBox="0 0 27 27" fill="none" xmlns="http://www.w3.org/2000/svg">
<path d="M23.5599 11.5854L21.7156 9.75182C22.1624 9.02713 22.4021 8.19387 22.4086 7.34255C22.4064 6.43472 22.1355 5.54786 21.6298 4.79391C21.1241 4.03995 20.4064 3.45269 19.5673 3.10626C18.7281 2.75982 17.8052 2.66973 16.9149 2.84735C16.0246 3.02498 15.2069 3.46236 14.565 4.1043C13.923 4.74623 13.4857 5.56394 13.308 6.45423C13.1304 7.34452 13.2205 8.26747 13.5669 9.1066C13.9134 9.94573 14.5006 10.6634 15.2546 11.1691C16.0085 11.6748 16.8954 11.9458 17.8032 11.9479C18.6527 11.9489 19.4861 11.7166 20.2125 11.2763L22.0461 13.1205C22.1452 13.2205 22.2631 13.2998 22.393 13.3539C22.5229 13.408 22.6623 13.4359 22.803 13.4359C22.9437 13.4359 23.0831 13.408 23.213 13.3539C23.3429 13.2998 23.4608 13.2205 23.5599 13.1205C23.6631 13.0211 23.7451 12.9019 23.8012 12.77C23.8572 12.6381 23.8861 12.4963 23.8861 12.353C23.8861 12.2097 23.8572 12.0679 23.8012 11.936C23.7451 11.8041 23.6631 11.6849 23.5599 11.5854ZM19.5515 9.14418C19.2019 9.48953 18.7573 9.72288 18.2745 9.81448C17.7917 9.90607 17.2925 9.85175 16.8407 9.65844C16.3888 9.46512 16.0048 9.14159 15.7377 8.72911C15.4705 8.31664 15.3323 7.83392 15.3406 7.34255C15.3404 7.01934 15.4044 6.69931 15.5288 6.40102C15.6533 6.10273 15.8357 5.83212 16.0656 5.60489C16.5289 5.14463 17.1555 4.88633 17.8086 4.88633C18.4616 4.88633 19.0882 5.14463 19.5515 5.60489C19.7807 5.83362 19.9625 6.10531 20.0866 6.40439C20.2106 6.70348 20.2745 7.02409 20.2745 7.34788C20.2745 7.67167 20.2106 7.99229 20.0866 8.29137C19.9625 8.59046 19.7807 8.86214 19.5515 9.09087V9.14418ZM21.7369 15.5405C21.6011 15.5052 21.4597 15.4971 21.3208 15.5167C21.1819 15.5362 21.0481 15.5829 20.9273 15.6542C20.8065 15.7256 20.7009 15.82 20.6167 15.9322C20.5324 16.0444 20.4712 16.1721 20.4364 16.308C20.0287 17.9162 19.0968 19.3427 17.7878 20.362C16.4789 21.3814 14.8676 21.9355 13.2085 21.9368H7.24932L7.93159 21.2652C8.13015 21.0654 8.24159 20.7952 8.24159 20.5136C8.24159 20.232 8.13015 19.9618 7.93159 19.762C7.2419 19.0583 6.6984 18.225 6.33246 17.3101C5.96652 16.3953 5.78538 15.417 5.79949 14.4318C5.8051 12.961 6.24523 11.5246 7.06461 10.3031C7.88398 9.08163 9.04605 8.12953 10.4048 7.56642C10.6678 7.46181 10.8784 7.25703 10.9903 6.99713C11.1023 6.73723 11.1064 6.4435 11.0018 6.18056C10.8972 5.91761 10.6924 5.707 10.4325 5.59504C10.1726 5.48308 9.8789 5.47896 9.61595 5.58357C8.22354 6.14172 6.98139 7.01859 5.98927 8.14379C4.99715 9.26898 4.28269 10.6111 3.90327 12.0625C3.52385 13.5138 3.49003 15.0339 3.80454 16.5007C4.11904 17.9675 4.77311 19.3401 5.71421 20.5083L3.92324 22.2459C3.77532 22.3958 3.67512 22.5862 3.63527 22.793C3.59543 22.9998 3.61774 23.2138 3.69937 23.4079C3.77935 23.6026 3.91516 23.7693 4.0897 23.8869C4.26423 24.0045 4.46967 24.0678 4.68014 24.0689H13.2085C15.3367 24.0702 17.4048 23.3641 19.0877 22.0614C20.7705 20.7587 21.9725 18.9336 22.5045 16.873C22.5446 16.7351 22.5564 16.5905 22.5393 16.4479C22.5221 16.3053 22.4763 16.1677 22.4046 16.0432C22.333 15.9188 22.2369 15.8101 22.1221 15.7237C22.0074 15.6373 21.8764 15.575 21.7369 15.5405Z" fill="#2E78F5"/>
</svg>
