<svg width="17" height="17" viewBox="0 0 17 17" fill="none" xmlns="http://www.w3.org/2000/svg">
<path d="M5.48958 7.28243H6.15625C6.33306 7.28243 6.50263 7.21219 6.62765 7.08717C6.75268 6.96214 6.82292 6.79257 6.82292 6.61576C6.82292 6.43895 6.75268 6.26938 6.62765 6.14436C6.50263 6.01933 6.33306 5.9491 6.15625 5.9491H5.48958C5.31277 5.9491 5.1432 6.01933 5.01818 6.14436C4.89315 6.26938 4.82292 6.43895 4.82292 6.61576C4.82292 6.79257 4.89315 6.96214 5.01818 7.08717C5.1432 7.21219 5.31277 7.28243 5.48958 7.28243ZM8.15625 11.2824H5.48958C5.31277 11.2824 5.1432 11.3527 5.01818 11.4777C4.89315 11.6027 4.82292 11.7723 4.82292 11.9491C4.82292 12.1259 4.89315 12.2955 5.01818 12.4205C5.1432 12.5455 5.31277 12.6158 5.48958 12.6158H8.15625C8.33306 12.6158 8.50263 12.5455 8.62765 12.4205C8.75268 12.2955 8.82292 12.1259 8.82292 11.9491C8.82292 11.7723 8.75268 11.6027 8.62765 11.4777C8.50263 11.3527 8.33306 11.2824 8.15625 11.2824ZM8.15625 8.61576H5.48958C5.31277 8.61576 5.1432 8.686 5.01818 8.81103C4.89315 8.93605 4.82292 9.10562 4.82292 9.28243C4.82292 9.45924 4.89315 9.62881 5.01818 9.75383C5.1432 9.87886 5.31277 9.9491 5.48958 9.9491H8.15625C8.33306 9.9491 8.50263 9.87886 8.62765 9.75383C8.75268 9.62881 8.82292 9.45924 8.82292 9.28243C8.82292 9.10562 8.75268 8.93605 8.62765 8.81103C8.50263 8.686 8.33306 8.61576 8.15625 8.61576ZM12.7696 6.8691C12.8206 6.74769 12.8346 6.61388 12.8097 6.48455C12.7848 6.35523 12.7221 6.23618 12.6296 6.14243L8.62958 2.14243C8.57447 2.09057 8.51146 2.04782 8.44292 2.01576C8.42302 2.01294 8.40282 2.01294 8.38292 2.01576L8.19625 1.9491H4.15625C3.62582 1.9491 3.11711 2.15981 2.74204 2.53488C2.36696 2.90996 2.15625 3.41866 2.15625 3.9491V13.2824C2.15625 13.8129 2.36696 14.3216 2.74204 14.6966C3.11711 15.0717 3.62582 15.2824 4.15625 15.2824H8.15625C8.33306 15.2824 8.50263 15.2122 8.62765 15.0872C8.75268 14.9621 8.82292 14.7926 8.82292 14.6158C8.82292 14.439 8.75268 14.2694 8.62765 14.1444C8.50263 14.0193 8.33306 13.9491 8.15625 13.9491H4.15625C3.97944 13.9491 3.80987 13.8789 3.68485 13.7538C3.55982 13.6288 3.48958 13.4592 3.48958 13.2824V3.9491C3.48958 3.77229 3.55982 3.60272 3.68485 3.47769C3.80987 3.35267 3.97944 3.28243 4.15625 3.28243H7.48958V5.28243C7.48958 5.81286 7.7003 6.32157 8.07537 6.69664C8.45044 7.07172 8.95915 7.28243 9.48958 7.28243H12.1562C12.2879 7.28177 12.4163 7.24217 12.5255 7.16862C12.6346 7.09506 12.7196 6.99084 12.7696 6.8691ZM9.48958 5.9491C9.31277 5.9491 9.1432 5.87886 9.01818 5.75383C8.89315 5.62881 8.82292 5.45924 8.82292 5.28243V4.22243L10.5496 5.9491H9.48958ZM14.1562 8.61576H10.8229C10.6461 8.61576 10.4765 8.686 10.3515 8.81103C10.2265 8.93605 10.1562 9.10562 10.1562 9.28243V14.6158C10.1566 14.7364 10.1896 14.8546 10.2518 14.9579C10.314 15.0612 10.4031 15.1457 10.5096 15.2024C10.6138 15.256 10.7303 15.2811 10.8474 15.2752C10.9644 15.2694 11.0779 15.2328 11.1762 15.1691L12.4896 14.3024L13.8229 15.1691C13.9225 15.2267 14.0353 15.2575 14.1504 15.2586C14.2654 15.2597 14.3788 15.231 14.4794 15.1753C14.5801 15.1196 14.6646 15.0388 14.7248 14.9408C14.785 14.8427 14.8188 14.7307 14.8229 14.6158V9.28243C14.8229 9.10562 14.7527 8.93605 14.6277 8.81103C14.5026 8.686 14.3331 8.61576 14.1562 8.61576ZM13.4896 13.3624L12.8629 12.9424C12.7527 12.8679 12.6226 12.8281 12.4896 12.8281C12.3565 12.8281 12.2265 12.8679 12.1163 12.9424L11.4896 13.3624V9.9491H13.4896V13.3624Z" fill="white"/>
</svg>
