<svg width="25" height="25" viewBox="0 0 25 25" fill="none" xmlns="http://www.w3.org/2000/svg">
<path d="M11.4487 20.2009H6.44873C6.18351 20.2009 5.92916 20.0956 5.74162 19.908C5.55409 19.7205 5.44873 19.4661 5.44873 19.2009V5.20093C5.44873 4.93571 5.55409 4.68136 5.74162 4.49382C5.92916 4.30628 6.18351 4.20093 6.44873 4.20093H11.4487V7.20093C11.4487 7.99658 11.7648 8.75964 12.3274 9.32225C12.89 9.88486 13.6531 10.2009 14.4487 10.2009H17.4487C17.4487 10.4661 17.5541 10.7205 17.7416 10.908C17.9292 11.0956 18.1835 11.2009 18.4487 11.2009C18.7139 11.2009 18.9683 11.0956 19.1558 10.908C19.3434 10.7205 19.4487 10.4661 19.4487 10.2009V9.14093C19.4383 9.04906 19.4182 8.95856 19.3887 8.87093V8.78093C19.3406 8.67811 19.2765 8.58359 19.1987 8.50093L13.1987 2.50093C13.1161 2.42314 13.0216 2.35901 12.9187 2.31093C12.8889 2.30669 12.8586 2.30669 12.8287 2.31093L12.5087 2.20093H6.44873C5.65308 2.20093 4.89002 2.517 4.32741 3.07961C3.7648 3.64222 3.44873 4.40528 3.44873 5.20093V19.2009C3.44873 19.9966 3.7648 20.7596 4.32741 21.3222C4.89002 21.8849 5.65308 22.2009 6.44873 22.2009H11.4487C11.7139 22.2009 11.9683 22.0956 12.1558 21.908C12.3434 21.7205 12.4487 21.4661 12.4487 21.2009C12.4487 20.9357 12.3434 20.6814 12.1558 20.4938C11.9683 20.3063 11.7139 20.2009 11.4487 20.2009ZM13.4487 5.61093L16.0387 8.20093H14.4487C14.1835 8.20093 13.9292 8.09557 13.7416 7.90803C13.5541 7.7205 13.4487 7.46614 13.4487 7.20093V5.61093ZM8.44873 8.20093C8.18351 8.20093 7.92916 8.30628 7.74162 8.49382C7.55409 8.68136 7.44873 8.93571 7.44873 9.20093C7.44873 9.46614 7.55409 9.7205 7.74162 9.90803C7.92916 10.0956 8.18351 10.2009 8.44873 10.2009H9.44873C9.71395 10.2009 9.9683 10.0956 10.1558 9.90803C10.3434 9.7205 10.4487 9.46614 10.4487 9.20093C10.4487 8.93571 10.3434 8.68136 10.1558 8.49382C9.9683 8.30628 9.71395 8.20093 9.44873 8.20093H8.44873ZM22.0787 14.0609C21.9626 13.9669 21.8268 13.9002 21.6814 13.8656C21.5361 13.831 21.3848 13.8294 21.2387 13.8609C20.8596 13.9408 20.4678 13.9403 20.0889 13.8593C19.7099 13.7784 19.3522 13.6188 19.0387 13.3909C18.8675 13.2658 18.6608 13.1983 18.4487 13.1983C18.2366 13.1983 18.03 13.2658 17.8587 13.3909C17.545 13.6182 17.1873 13.7775 16.8084 13.8584C16.4295 13.9393 16.0379 13.9402 15.6587 13.8609C15.5111 13.8292 15.3581 13.8313 15.2113 13.8671C15.0646 13.9029 14.9279 13.9715 14.8114 14.0677C14.695 14.164 14.6019 14.2853 14.5391 14.4227C14.4762 14.5601 14.4454 14.7099 14.4487 14.8609V17.2009C14.4472 17.9167 14.6127 18.623 14.9321 19.2636C15.2516 19.9042 15.7161 20.4614 16.2887 20.8909L17.8487 22.0009C18.0218 22.1307 18.2324 22.2009 18.4487 22.2009C18.6651 22.2009 18.8756 22.1307 19.0487 22.0009L20.6087 20.8409C21.1747 20.4165 21.6351 19.8673 21.9542 19.236C22.2733 18.6047 22.4426 17.9083 22.4487 17.2009V14.8309C22.4478 14.6832 22.4141 14.5376 22.3501 14.4044C22.2861 14.2713 22.1934 14.154 22.0787 14.0609ZM20.4487 17.2009C20.4534 17.6026 20.3657 18.0001 20.1923 18.3625C20.0189 18.7249 19.7645 19.0425 19.4487 19.2909L18.4487 20.0109L17.4487 19.2909C17.133 19.0425 16.8785 18.7249 16.7051 18.3625C16.5318 18.0001 16.444 17.6026 16.4487 17.2009V15.9209C17.1481 15.8895 17.8316 15.7016 18.4487 15.3709C19.0659 15.7016 19.7493 15.8895 20.4487 15.9209V17.2009ZM11.4487 16.2509H8.44873C8.18351 16.2509 7.92916 16.3563 7.74162 16.5438C7.55409 16.7314 7.44873 16.9857 7.44873 17.2509C7.44873 17.5161 7.55409 17.7705 7.74162 17.958C7.92916 18.1456 8.18351 18.2509 8.44873 18.2509H11.4487C11.7139 18.2509 11.9683 18.1456 12.1558 17.958C12.3434 17.7705 12.4487 17.5161 12.4487 17.2509C12.4487 16.9857 12.3434 16.7314 12.1558 16.5438C11.9683 16.3563 11.7139 16.2509 11.4487 16.2509ZM12.4487 12.2509H8.44873C8.18351 12.2509 7.92916 12.3563 7.74162 12.5438C7.55409 12.7314 7.44873 12.9857 7.44873 13.2509C7.44873 13.5161 7.55409 13.7705 7.74162 13.958C7.92916 14.1456 8.18351 14.2509 8.44873 14.2509H12.4487C12.7139 14.2509 12.9683 14.1456 13.1558 13.958C13.3434 13.7705 13.4487 13.5161 13.4487 13.2509C13.4487 12.9857 13.3434 12.7314 13.1558 12.5438C12.9683 12.3563 12.7139 12.2509 12.4487 12.2509Z" fill="white"/>
</svg>
