<svg width="25" height="25" viewBox="0 0 25 25" fill="none" xmlns="http://www.w3.org/2000/svg">
<path d="M8.53418 8.61572C8.26896 8.61572 8.01461 8.72108 7.82707 8.90862C7.63954 9.09615 7.53418 9.35051 7.53418 9.61572C7.53418 9.88094 7.63954 10.1353 7.82707 10.3228C8.01461 10.5104 8.26896 10.6157 8.53418 10.6157H9.53418C9.7994 10.6157 10.0538 10.5104 10.2413 10.3228C10.4288 10.1353 10.5342 9.88094 10.5342 9.61572C10.5342 9.35051 10.4288 9.09615 10.2413 8.90862C10.0538 8.72108 9.7994 8.61572 9.53418 8.61572H8.53418ZM13.5342 20.6157H6.53418C6.26896 20.6157 6.01461 20.5104 5.82707 20.3228C5.63954 20.1353 5.53418 19.8809 5.53418 19.6157V5.61572C5.53418 5.35051 5.63954 5.09615 5.82707 4.90862C6.01461 4.72108 6.26896 4.61572 6.53418 4.61572H11.5342V7.61572C11.5342 8.41137 11.8503 9.17443 12.4129 9.73704C12.9755 10.2997 13.7385 10.6157 14.5342 10.6157H17.5342V12.6157C17.5342 12.8809 17.6395 13.1353 17.8271 13.3228C18.0146 13.5104 18.269 13.6157 18.5342 13.6157C18.7994 13.6157 19.0538 13.5104 19.2413 13.3228C19.4288 13.1353 19.5342 12.8809 19.5342 12.6157V9.55572C19.5238 9.46386 19.5037 9.37335 19.4742 9.28572V9.19572C19.4261 9.0929 19.362 8.99839 19.2842 8.91572L13.2842 2.91572C13.2015 2.83794 13.107 2.7738 13.0042 2.72572C12.9711 2.71993 12.9373 2.71993 12.9042 2.72572C12.8069 2.67373 12.7024 2.63664 12.5942 2.61572H6.53418C5.73853 2.61572 4.97547 2.93179 4.41286 3.4944C3.85025 4.05701 3.53418 4.82007 3.53418 5.61572V19.6157C3.53418 20.4114 3.85025 21.1744 4.41286 21.737C4.97547 22.2997 5.73853 22.6157 6.53418 22.6157H13.5342C13.7994 22.6157 14.0538 22.5104 14.2413 22.3228C14.4288 22.1353 14.5342 21.8809 14.5342 21.6157C14.5342 21.3505 14.4288 21.0962 14.2413 20.9086C14.0538 20.7211 13.7994 20.6157 13.5342 20.6157ZM13.5342 6.02572L16.1242 8.61572H14.5342C14.269 8.61572 14.0146 8.51037 13.8271 8.32283C13.6395 8.13529 13.5342 7.88094 13.5342 7.61572V6.02572ZM14.5342 12.6157H8.53418C8.26896 12.6157 8.01461 12.7211 7.82707 12.9086C7.63954 13.0962 7.53418 13.3505 7.53418 13.6157C7.53418 13.8809 7.63954 14.1353 7.82707 14.3228C8.01461 14.5104 8.26896 14.6157 8.53418 14.6157H14.5342C14.7994 14.6157 15.0538 14.5104 15.2413 14.3228C15.4288 14.1353 15.5342 13.8809 15.5342 13.6157C15.5342 13.3505 15.4288 13.0962 15.2413 12.9086C15.0538 12.7211 14.7994 12.6157 14.5342 12.6157ZM21.2442 18.9057C21.1512 18.812 21.0406 18.7376 20.9188 18.6868C20.7969 18.6361 20.6662 18.6099 20.5342 18.6099C20.4022 18.6099 20.2715 18.6361 20.1496 18.6868C20.0277 18.7376 19.9171 18.812 19.8242 18.9057L19.5342 19.2057V16.6157C19.5342 16.3505 19.4288 16.0962 19.2413 15.9086C19.0538 15.7211 18.7994 15.6157 18.5342 15.6157C18.269 15.6157 18.0146 15.7211 17.8271 15.9086C17.6395 16.0962 17.5342 16.3505 17.5342 16.6157V19.2057L17.2442 18.9057C17.0559 18.7174 16.8005 18.6116 16.5342 18.6116C16.2679 18.6116 16.0125 18.7174 15.8242 18.9057C15.6359 19.094 15.5301 19.3494 15.5301 19.6157C15.5301 19.882 15.6359 20.1374 15.8242 20.3257L17.8242 22.3257C17.9193 22.4168 18.0314 22.4881 18.1542 22.5357C18.2739 22.5886 18.4033 22.616 18.5342 22.616C18.6651 22.616 18.7945 22.5886 18.9142 22.5357C19.0369 22.4881 19.1491 22.4168 19.2442 22.3257L21.2442 20.3257C21.3379 20.2328 21.4123 20.1222 21.4631 20.0003C21.5138 19.8784 21.54 19.7477 21.54 19.6157C21.54 19.4837 21.5138 19.353 21.4631 19.2311C21.4123 19.1093 21.3379 18.9987 21.2442 18.9057ZM12.5342 18.6157C12.7994 18.6157 13.0538 18.5104 13.2413 18.3228C13.4288 18.1353 13.5342 17.8809 13.5342 17.6157C13.5342 17.3505 13.4288 17.0962 13.2413 16.9086C13.0538 16.7211 12.7994 16.6157 12.5342 16.6157H8.53418C8.26896 16.6157 8.01461 16.7211 7.82707 16.9086C7.63954 17.0962 7.53418 17.3505 7.53418 17.6157C7.53418 17.8809 7.63954 18.1353 7.82707 18.3228C8.01461 18.5104 8.26896 18.6157 8.53418 18.6157H12.5342Z" fill="#9EA9BE"/>
</svg>
