<svg width="25" height="25" viewBox="0 0 25 25" fill="none" xmlns="http://www.w3.org/2000/svg">
<path d="M13.4897 20.6157H6.48975C6.22453 20.6157 5.97018 20.5104 5.78264 20.3228C5.5951 20.1353 5.48975 19.8809 5.48975 19.6157V5.61572C5.48975 5.35051 5.5951 5.09615 5.78264 4.90862C5.97018 4.72108 6.22453 4.61572 6.48975 4.61572H11.4897V7.61572C11.4897 8.41137 11.8058 9.17443 12.3684 9.73704C12.931 10.2997 13.6941 10.6157 14.4897 10.6157H17.4897V12.6157C17.4897 12.8809 17.5951 13.1353 17.7826 13.3228C17.9702 13.5104 18.2245 13.6157 18.4897 13.6157C18.755 13.6157 19.0093 13.5104 19.1969 13.3228C19.3844 13.1353 19.4897 12.8809 19.4897 12.6157V9.55572C19.4793 9.46386 19.4592 9.37335 19.4297 9.28572V9.19572C19.3817 9.0929 19.3175 8.99839 19.2397 8.91572L13.2397 2.91572C13.1571 2.83794 13.0626 2.7738 12.9597 2.72572C12.9299 2.72148 12.8996 2.72148 12.8697 2.72572C12.7682 2.66746 12.656 2.63007 12.5397 2.61572H6.48975C5.6941 2.61572 4.93104 2.93179 4.36843 3.4944C3.80582 4.05701 3.48975 4.82007 3.48975 5.61572V19.6157C3.48975 20.4114 3.80582 21.1744 4.36843 21.737C4.93104 22.2997 5.6941 22.6157 6.48975 22.6157H13.4897C13.755 22.6157 14.0093 22.5104 14.1969 22.3228C14.3844 22.1353 14.4897 21.8809 14.4897 21.6157C14.4897 21.3505 14.3844 21.0962 14.1969 20.9086C14.0093 20.7211 13.755 20.6157 13.4897 20.6157ZM13.4897 6.02572L16.0797 8.61572H14.4897C14.2245 8.61572 13.9702 8.51037 13.7826 8.32283C13.5951 8.13529 13.4897 7.88094 13.4897 7.61572V6.02572ZM8.48975 8.61572C8.22453 8.61572 7.97018 8.72108 7.78264 8.90862C7.5951 9.09615 7.48975 9.35051 7.48975 9.61572C7.48975 9.88094 7.5951 10.1353 7.78264 10.3228C7.97018 10.5104 8.22453 10.6157 8.48975 10.6157H9.48975C9.75496 10.6157 10.0093 10.5104 10.1969 10.3228C10.3844 10.1353 10.4897 9.88094 10.4897 9.61572C10.4897 9.35051 10.3844 9.09615 10.1969 8.90862C10.0093 8.72108 9.75496 8.61572 9.48975 8.61572H8.48975ZM14.4897 12.6157H8.48975C8.22453 12.6157 7.97018 12.7211 7.78264 12.9086C7.5951 13.0962 7.48975 13.3505 7.48975 13.6157C7.48975 13.8809 7.5951 14.1353 7.78264 14.3228C7.97018 14.5104 8.22453 14.6157 8.48975 14.6157H14.4897C14.755 14.6157 15.0093 14.5104 15.1969 14.3228C15.3844 14.1353 15.4897 13.8809 15.4897 13.6157C15.4897 13.3505 15.3844 13.0962 15.1969 12.9086C15.0093 12.7211 14.755 12.6157 14.4897 12.6157ZM21.1997 17.9057L19.1997 15.9057C19.1046 15.8147 18.9925 15.7433 18.8697 15.6957C18.6263 15.5957 18.3532 15.5957 18.1097 15.6957C17.987 15.7433 17.8749 15.8147 17.7797 15.9057L15.7797 17.9057C15.5914 18.094 15.4857 18.3494 15.4857 18.6157C15.4857 18.882 15.5914 19.1374 15.7797 19.3257C15.9681 19.514 16.2234 19.6198 16.4897 19.6198C16.756 19.6198 17.0114 19.514 17.1997 19.3257L17.4897 19.0257V21.6157C17.4897 21.8809 17.5951 22.1353 17.7826 22.3228C17.9702 22.5104 18.2245 22.6157 18.4897 22.6157C18.755 22.6157 19.0093 22.5104 19.1969 22.3228C19.3844 22.1353 19.4897 21.8809 19.4897 21.6157V19.0257L19.7797 19.3257C19.8727 19.4195 19.9833 19.4938 20.1052 19.5446C20.227 19.5954 20.3577 19.6215 20.4897 19.6215C20.6218 19.6215 20.7525 19.5954 20.8743 19.5446C20.9962 19.4938 21.1068 19.4195 21.1997 19.3257C21.2935 19.2328 21.3679 19.1222 21.4186 19.0003C21.4694 18.8784 21.4955 18.7477 21.4955 18.6157C21.4955 18.4837 21.4694 18.353 21.4186 18.2311C21.3679 18.1093 21.2935 17.9987 21.1997 17.9057ZM12.4897 18.6157C12.755 18.6157 13.0093 18.5104 13.1969 18.3228C13.3844 18.1353 13.4897 17.8809 13.4897 17.6157C13.4897 17.3505 13.3844 17.0962 13.1969 16.9086C13.0093 16.7211 12.755 16.6157 12.4897 16.6157H8.48975C8.22453 16.6157 7.97018 16.7211 7.78264 16.9086C7.5951 17.0962 7.48975 17.3505 7.48975 17.6157C7.48975 17.8809 7.5951 18.1353 7.78264 18.3228C7.97018 18.5104 8.22453 18.6157 8.48975 18.6157H12.4897Z" fill="#9EA9BE"/>
</svg>
