<svg width="25" height="24" viewBox="0 0 25 24" fill="none" xmlns="http://www.w3.org/2000/svg">
<path d="M18.0387 2.81995C17.119 2.06353 16.042 1.52198 14.8863 1.23479C13.7307 0.947605 12.5255 0.922035 11.3587 1.15995C9.80505 1.47377 8.37966 2.24202 7.26336 3.36723C6.14705 4.49243 5.39014 5.92388 5.08867 7.47995C4.86852 8.64667 4.90852 9.8476 5.20583 10.9971C5.50314 12.1466 6.05043 13.2163 6.80867 14.1299C7.51236 14.924 7.91571 15.9395 7.94867 16.9999V19.9999C7.94867 20.7956 8.26474 21.5587 8.82735 22.1213C9.38996 22.6839 10.153 22.9999 10.9487 22.9999H14.9487C15.7443 22.9999 16.5074 22.6839 17.07 22.1213C17.6326 21.5587 17.9487 20.7956 17.9487 19.9999V17.1899C17.9822 16.0191 18.4124 14.8944 19.1687 13.9999C20.4938 12.3607 21.1184 10.2648 20.9068 8.16757C20.6953 6.07038 19.6645 4.14143 18.0387 2.79995V2.81995ZM15.9487 19.9999C15.9487 20.2652 15.8433 20.5195 15.6558 20.7071C15.4682 20.8946 15.2139 20.9999 14.9487 20.9999H10.9487C10.6835 20.9999 10.4291 20.8946 10.2416 20.7071C10.054 20.5195 9.94867 20.2652 9.94867 19.9999V18.9999H15.9487V19.9999ZM17.6187 12.7599C16.6132 13.9525 16.0265 15.442 15.9487 16.9999H13.9487V13.9999C13.9487 13.7347 13.8433 13.4804 13.6558 13.2928C13.4682 13.1053 13.2139 12.9999 12.9487 12.9999C12.6835 12.9999 12.4291 13.1053 12.2416 13.2928C12.054 13.4804 11.9487 13.7347 11.9487 13.9999V16.9999H9.94867C9.92229 15.468 9.35562 13.9947 8.34867 12.8399C7.68431 12.0439 7.23756 11.0894 7.05198 10.0693C6.8664 9.04922 6.94832 7.99846 7.28976 7.01948C7.6312 6.04049 8.22049 5.16669 9.00019 4.48327C9.77989 3.79985 10.7234 3.33015 11.7387 3.11995C12.6112 2.94029 13.5128 2.95719 14.378 3.16942C15.2432 3.38164 16.0503 3.78387 16.7407 4.3469C17.4311 4.90993 17.9874 5.61962 18.3694 6.42446C18.7513 7.22931 18.9492 8.10909 18.9487 8.99995C18.9561 10.3698 18.4858 11.6994 17.6187 12.7599Z" fill="#2E78F5"/>
</svg>
