<svg width="73" height="73" viewBox="0 0 73 73" fill="none" xmlns="http://www.w3.org/2000/svg">
<g filter="url(#filter0_d_427_889)">
<circle cx="36.8629" cy="36.4336" r="24" fill="white"/>
<circle cx="36.8629" cy="36.4336" r="23.5" stroke="white"/>
</g>
<path d="M41.8041 27.5752C40.8843 26.8188 39.8074 26.2772 38.6517 25.99C37.4961 25.7029 36.2909 25.6773 35.1241 25.9152C33.5704 26.229 32.145 26.9973 31.0287 28.1225C29.9124 29.2477 29.1555 30.6791 28.8541 32.2352C28.6339 33.4019 28.6739 34.6028 28.9712 35.7523C29.2685 36.9018 29.8158 37.9715 30.5741 38.8852C31.2777 39.6793 31.6811 40.6947 31.7141 41.7552V44.7552C31.7141 45.5508 32.0301 46.3139 32.5927 46.8765C33.1553 47.4391 33.9184 47.7552 34.7141 47.7552H38.7141C39.5097 47.7552 40.2728 47.4391 40.8354 46.8765C41.398 46.3139 41.7141 45.5508 41.7141 44.7552V41.9452C41.7476 40.7744 42.1778 39.6496 42.9341 38.7552C44.2592 37.116 44.8838 35.02 44.6722 32.9228C44.4606 30.8256 43.4299 28.8967 41.8041 27.5552V27.5752ZM39.7141 44.7552C39.7141 45.0204 39.6087 45.2748 39.4212 45.4623C39.2336 45.6498 38.9793 45.7552 38.7141 45.7552H34.7141C34.4488 45.7552 34.1945 45.6498 34.0069 45.4623C33.8194 45.2748 33.7141 45.0204 33.7141 44.7552V43.7552H39.7141V44.7552ZM41.3841 37.5152C40.3786 38.7078 39.7919 40.1972 39.7141 41.7552H37.7141V38.7552C37.7141 38.49 37.6087 38.2356 37.4212 38.0481C37.2336 37.8606 36.9793 37.7552 36.7141 37.7552C36.4488 37.7552 36.1945 37.8606 36.0069 38.0481C35.8194 38.2356 35.7141 38.49 35.7141 38.7552V41.7552H33.7141C33.6877 40.2233 33.121 38.75 32.1141 37.5952C31.4497 36.7992 31.0029 35.8446 30.8174 34.8245C30.6318 33.8045 30.7137 32.7537 31.0551 31.7747C31.3966 30.7957 31.9859 29.9219 32.7656 29.2385C33.5453 28.5551 34.4888 28.0854 35.5041 27.8752C36.3766 27.6955 37.2782 27.7124 38.1434 27.9247C39.0086 28.1369 39.8157 28.5391 40.5061 29.1021C41.1965 29.6652 41.7528 30.3749 42.1347 31.1797C42.5166 31.9846 42.7145 32.8643 42.7141 33.7552C42.7215 35.1251 42.2511 36.4547 41.3841 37.5152Z" fill="#9EA9BE"/>
<defs>
<filter id="filter0_d_427_889" x="0.862915" y="0.433594" width="72" height="72" filterUnits="userSpaceOnUse" color-interpolation-filters="sRGB">
<feFlood flood-opacity="0" result="BackgroundImageFix"/>
<feColorMatrix in="SourceAlpha" type="matrix" values="0 0 0 0 0 0 0 0 0 0 0 0 0 0 0 0 0 0 127 0" result="hardAlpha"/>
<feOffset/>
<feGaussianBlur stdDeviation="6"/>
<feComposite in2="hardAlpha" operator="out"/>
<feColorMatrix type="matrix" values="0 0 0 0 0 0 0 0 0 0 0 0 0 0 0 0 0 0 0.05 0"/>
<feBlend mode="normal" in2="BackgroundImageFix" result="effect1_dropShadow_427_889"/>
<feBlend mode="normal" in="SourceGraphic" in2="effect1_dropShadow_427_889" result="shape"/>
</filter>
</defs>
</svg>
