<svg xmlns="http://www.w3.org/2000/svg" width="237" height="76" viewBox="0 0 237 76" fill="none">
  <g filter="url(#filter0_d_271_429)">
    <path d="M9.46967 45.8932V36.9606H64.256V45.8932H9.46967ZM11.2562 56.5527V48.3943H62.1717V66.3785H49.6066V56.5527H11.2562ZM62.8268 27.6112V34.4595H11.5539V19.0955H61.874V25.4674H24.7741V27.6112H62.8268ZM11.5539 17.1304V10.4607H62.1717V17.1304H11.5539Z" fill="white"/>
    <path d="M70.211 50.7763V42.1415C70.211 33.4472 76.9997 28.0876 86.1109 28.0876C95.3412 28.0876 102.07 33.4472 102.07 42.1415V50.7763C102.07 59.5302 95.3412 64.8897 86.1109 64.8897C76.9997 64.8897 70.211 59.5302 70.211 50.7763ZM103.261 41.9033V31.1247H110.05V10.4607H123.151V65.783H110.05V41.9033H103.261ZM69.6155 25.9438V15.8203H79.62V9.86523H92.721V15.8203H102.725V25.9438H69.6155ZM82.1806 41.6651V51.4909C82.1806 53.9325 83.9076 55.5999 86.23 55.5999C88.5525 55.5999 90.339 53.9325 90.339 51.4909V41.6651C90.339 39.2831 88.5525 37.4966 86.23 37.4966C83.9076 37.4966 82.1806 39.2831 82.1806 41.6651Z" fill="white"/>
    <path d="M129.254 37.7199V33.5588C129.254 26.2001 134.817 22.4769 141.607 22.4769C148.44 22.4769 154.002 26.2001 154.002 33.5588V37.7199C154.002 45.0348 148.44 48.5828 141.607 48.5828C134.817 48.5828 129.254 45.0348 129.254 37.7199ZM157.901 63.1687V22.4769H167.756V63.1687H157.901ZM127.94 62.5117V54.6274L156.806 52.8753V60.7596L127.94 62.5117ZM138.365 33.0331V38.1579C138.365 40.2166 139.811 41.4431 141.607 41.4431C143.49 41.4431 144.979 40.2166 144.979 38.1579V33.0331C144.979 30.9744 143.49 29.6166 141.607 29.6166C139.811 29.6166 138.365 30.9744 138.365 33.0331Z" fill="white"/>
    <path d="M172.968 44.1067V33.0303C181.066 30.6483 184.759 23.7405 184.759 16.118V10.7585H197.919V16.118C197.919 23.7405 201.611 30.6483 209.71 33.0303V44.1067C201.314 42.2606 195.299 38.2707 191.309 32.1966C187.319 38.2707 181.364 42.2606 172.968 44.1067ZM227.397 56.0168V65.783H176.064V46.846H189.642V56.0168H227.397ZM213.105 50.7168V10.4607H226.503V50.7168H213.105Z" fill="white"/>
  </g>
  <defs>
    <filter id="filter0_d_271_429" x="0.469666" y="0.865234" width="235.927" height="74.5133" filterUnits="userSpaceOnUse" color-interpolation-filters="sRGB">
      <feFlood flood-opacity="0" result="BackgroundImageFix"/>
      <feColorMatrix in="SourceAlpha" type="matrix" values="0 0 0 0 0 0 0 0 0 0 0 0 0 0 0 0 0 0 127 0" result="hardAlpha"/>
      <feOffset/>
      <feGaussianBlur stdDeviation="4.5"/>
      <feComposite in2="hardAlpha" operator="out"/>
      <feColorMatrix type="matrix" values="0 0 0 0 0.06875 0 0 0 0 0.16775 0 0 0 0 0.6875 0 0 0 0.25 0"/>
      <feBlend mode="normal" in2="BackgroundImageFix" result="effect1_dropShadow_271_429"/>
      <feBlend mode="normal" in="SourceGraphic" in2="effect1_dropShadow_271_429" result="shape"/>
    </filter>
  </defs>
</svg>