<svg width="81" height="21" viewBox="0 0 81 21" fill="none" xmlns="http://www.w3.org/2000/svg">
<path d="M0.489746 13.4514V10.1921H20.4801V13.4514H0.489746ZM1.14161 17.3408V14.364H19.7196V20.9261H15.1349V17.3408H1.14161ZM19.9586 6.78069V9.27948H1.25025V3.67349H19.611V5.99845H6.07401V6.78069H19.9586ZM1.25025 2.95644V0.52283H19.7196V2.95644H1.25025Z" fill="#2E78F5"/>
<path d="M22.653 15.2331V12.0825C22.653 8.9101 25.1301 6.95452 28.4545 6.95452C31.8225 6.95452 34.2778 8.9101 34.2778 12.0825V15.2331C34.2778 18.4273 31.8225 20.3828 28.4545 20.3828C25.1301 20.3828 22.653 18.4273 22.653 15.2331ZM34.7124 11.9956V8.06268H37.1895V0.52283H41.9698V20.7088H37.1895V11.9956H34.7124ZM22.4357 6.17228V2.47841H26.0861V0.305542H30.8664V2.47841H34.5168V6.17228H22.4357ZM27.0205 11.9087V15.4939C27.0205 16.3848 27.6506 16.9932 28.498 16.9932C29.3454 16.9932 29.9973 16.3848 29.9973 15.4939V11.9087C29.9973 11.0395 29.3454 10.3876 28.498 10.3876C27.6506 10.3876 27.0205 11.0395 27.0205 11.9087Z" fill="#2E78F5"/>
<path d="M44.1967 10.4691V8.95081C44.1967 6.26578 46.2265 4.90728 48.7037 4.90728C51.197 4.90728 53.2267 6.26578 53.2267 8.95081V10.4691C53.2267 13.1382 51.197 14.4328 48.7037 14.4328C46.2265 14.4328 44.1967 13.1382 44.1967 10.4691ZM54.6492 19.7549V4.90728H58.2452V19.7549H54.6492ZM43.7172 19.5151V16.6383L54.2496 15.999V18.8758L43.7172 19.5151ZM47.521 8.75902V10.629C47.521 11.3801 48.0484 11.8276 48.7037 11.8276C49.391 11.8276 49.9344 11.3801 49.9344 10.629V8.75902C49.9344 8.00785 49.391 7.5124 48.7037 7.5124C48.0484 7.5124 47.521 8.00785 47.521 8.75902Z" fill="#2E78F5"/>
<path d="M60.1467 12.7995V8.758C63.1018 7.88885 64.449 5.36832 64.449 2.58705V0.631473H69.251V2.58705C69.251 5.36832 70.5982 7.88885 73.5533 8.758V12.7995C70.4896 12.1259 68.295 10.6701 66.8391 8.45379C65.3833 10.6701 63.2105 12.1259 60.1467 12.7995ZM80.0067 17.1453V20.7088H61.2766V13.799H66.2307V17.1453H80.0067ZM74.7918 15.2114V0.52283H79.6808V15.2114H74.7918Z" fill="#2E78F5"/>
</svg>
