<svg width="232" height="106" viewBox="0 0 232 106" fill="none" xmlns="http://www.w3.org/2000/svg">
<g filter="url(#filter0_d_431_602)">
<path fill-rule="evenodd" clip-rule="evenodd" d="M178.977 12.6404C199.141 12.6404 215.488 28.987 215.488 49.1515C215.488 69.316 199.141 85.6626 178.977 85.6626H57.3981C48.3137 85.6626 40.0042 82.3449 33.6152 76.855C32.0488 79.3619 26.064 83.3191 16.7899 83.3191C19.2371 82.069 23.3951 76.7722 24.1313 71.1306C24.4173 68.9398 24.5918 67.0333 24.6984 65.4113C22.259 60.5149 20.8869 54.9934 20.8869 49.1515C20.8869 28.987 37.2336 12.6404 57.3981 12.6404H178.977Z" fill="#2E78F5"/>
</g>
<path d="M176.369 64.6243L186.172 64.6243L181.91 68.8739C181.667 69.1171 181.53 69.447 181.53 69.7909C181.53 70.1349 181.667 70.4648 181.91 70.708C182.153 70.9512 182.483 71.0879 182.827 71.0879C183.171 71.0879 183.501 70.9512 183.744 70.708L190.202 64.2497C190.32 64.1268 190.412 63.982 190.474 63.8234C190.603 63.509 190.603 63.1562 190.474 62.8418C190.412 62.6832 190.32 62.5384 190.202 62.4155L183.744 55.9572C183.624 55.8361 183.481 55.74 183.324 55.6745C183.166 55.6089 182.997 55.5751 182.827 55.5751C182.656 55.5751 182.488 55.6089 182.33 55.6745C182.173 55.74 182.03 55.8361 181.91 55.9572C181.789 56.0773 181.693 56.2201 181.627 56.3775C181.561 56.5349 181.528 56.7038 181.528 56.8743C181.528 57.0448 181.561 57.2136 181.627 57.371C181.693 57.5284 181.789 57.6713 181.91 57.7914L186.172 62.0409L176.369 62.0409C176.026 62.0409 175.697 62.177 175.455 62.4193C175.213 62.6615 175.077 62.99 175.077 63.3326C175.077 63.6752 175.213 64.0037 175.455 64.246C175.697 64.4882 176.026 64.6243 176.369 64.6243Z" fill="white"/>
<path d="M52.269 43.7861C49.1636 43.7861 46.937 42.0771 46.8784 39.6064H49.8472C49.896 40.6611 50.9214 41.3545 52.2886 41.3643C53.6948 41.3545 54.7007 40.5732 54.6909 39.4307C54.7007 38.2783 53.6753 37.4678 52.0151 37.458H50.7065V35.29H52.0151C53.4116 35.29 54.3882 34.5283 54.3784 33.415C54.3882 32.3311 53.5581 31.5889 52.3081 31.5986C51.0581 31.5889 50.0327 32.292 49.9839 33.376H47.1714C47.2202 30.9443 49.4077 29.2549 52.3081 29.2549C55.2573 29.2549 57.2202 31.0029 57.2104 33.2393C57.2202 34.8213 56.1167 35.9443 54.5347 36.2275V36.3447C56.6147 36.5986 57.7573 37.8584 57.7378 39.626C57.7573 42.0479 55.4624 43.7861 52.269 43.7861ZM75.0722 36.7354V38.6885H68.3729V41.5596H65.912V38.6885H58.8026V36.7354H75.0722ZM60.7167 45.0752V40.1533H63.1776V43.083H73.2753V45.0752H60.7167ZM60.8925 35.4854V28.1807H63.3534V30.0361H70.4823V28.1807H72.9628V35.4854H60.8925ZM63.3534 33.5127H70.4823V31.8916H63.3534V33.5127ZM84.7698 29.0791V37.6143H76.2347V29.0791H84.7698ZM78.2854 45.0752V39.3135H80.7659V43.083H90.4534V45.0752H78.2854ZM78.6956 35.6611H82.3089V31.0713H78.6956V35.6611ZM87.3089 40.583V27.6143H89.8089V32.7314H92.2112V34.7822H89.8089V40.583H87.3089ZM108.003 27.6143V45.3877H105.62V27.6143H108.003ZM92.7487 35.3096C92.7487 31.335 94.2624 28.874 96.6159 28.8838C98.7546 28.874 100.219 30.876 100.493 34.1963H101.948V27.8682H104.292V44.5674H101.948V36.1689H100.512C100.298 39.6553 98.8034 41.7744 96.6159 41.7744C94.2624 41.7744 92.7487 39.3037 92.7487 35.3096ZM95.0534 35.3096C95.0339 38.0439 95.6198 39.3916 96.6159 39.3721C97.6413 39.3916 98.2468 38.0439 98.237 35.3096C98.2468 32.585 97.6413 31.2275 96.6159 31.2275C95.6198 31.2275 95.0339 32.585 95.0534 35.3096ZM129.898 36.8525V38.8057H113.648V36.8525H129.898ZM115.484 41.9502V39.9775H127.906V45.3877H125.386V41.9502H115.484ZM115.679 35.7393V28.0049H128.003V29.9385H118.179V30.9346H127.593V32.7705H118.179V33.8447H128.16V35.7393H115.679ZM141.06 30.2705V32.2627H130.611V30.2705H134.576V27.8877H137.057V30.2705H141.06ZM131.529 37.4971C131.529 35.0459 133.365 33.249 135.826 33.2588C138.277 33.249 140.084 35.0459 140.103 37.4971C140.084 39.9189 138.277 41.7256 135.826 41.7354C133.365 41.7256 131.529 39.9189 131.529 37.4971ZM133.853 37.4971C133.844 38.835 134.693 39.626 135.826 39.6064C136.959 39.626 137.808 38.835 137.799 37.4971C137.808 36.1787 136.959 35.3584 135.826 35.3486C134.693 35.3584 133.844 36.1787 133.853 37.4971ZM140.689 36.6572V34.6455H143.111V27.6143H145.572V45.3877H143.111V36.6572H140.689ZM167.917 35.7393V37.7705H151.667V35.7393H167.917ZM153.522 42.1064C153.522 40.0166 155.866 38.835 159.753 38.8447C163.61 38.835 165.925 40.0166 165.944 42.1064C165.925 44.2061 163.61 45.3975 159.753 45.3877C155.866 45.3975 153.522 44.2061 153.522 42.1064ZM153.639 34.4893V28.083H165.964V30.0947H156.12V32.5166H166.061V34.4893H153.639ZM156.061 42.1064C156.051 43.0439 157.292 43.4932 159.753 43.4932C162.165 43.4932 163.434 43.0439 163.444 42.1064C163.434 41.208 162.165 40.7393 159.753 40.7393C157.292 40.7393 156.051 41.208 156.061 42.1064ZM184.802 37.1455V39.1377H168.532V37.1455H175.427V35.8564H170.564V30.9736H180.329V29.8799H170.525V27.9463H182.829V32.7705H173.044V33.9424H183.161V35.8564H177.907V37.1455H184.802ZM170.349 42.1064V40.1533H182.927V45.3096H180.407V42.1064H170.349ZM60.4722 55.6143V62.4307H62.9917V64.4814H60.4722V73.3486H57.9722V55.6143H60.4722ZM46.2534 68.3682C50.4624 66.2588 52.728 63.4268 53.1968 59.4619H47.269V57.4307H55.7261C55.7065 62.7432 53.6362 67.3428 47.6597 70.2822L46.2534 68.3682ZM77.7479 60.0674V62.0596H65.3847V55.8877H67.8651V60.0674H77.7479ZM63.3339 65.6143V63.583H79.5839V65.6143H63.3339ZM65.1894 70.0283C65.1894 67.9287 67.5331 66.7373 71.4198 66.7275C75.2772 66.7373 77.5917 67.9287 77.6112 70.0283C77.5917 72.1475 75.2772 73.3291 71.4198 73.3291C67.5331 73.3291 65.1894 72.1475 65.1894 70.0283ZM67.7284 70.0283C67.7187 70.9561 68.9589 71.4248 71.4198 71.4346C73.8319 71.4248 75.1015 70.9561 75.1112 70.0283C75.1015 69.0811 73.8319 68.6807 71.4198 68.6611C68.9589 68.6807 67.7187 69.0811 67.7284 70.0283ZM86.9378 58.0361C86.928 60.4092 88.1487 62.6064 91.0003 63.4854L89.6917 65.4385C87.7776 64.7744 86.4788 63.5537 85.7269 61.9521C84.9456 63.8076 83.5101 65.2627 81.3714 65.9854L80.0628 63.9932C83.0999 63.0166 84.4085 60.6338 84.4183 58.1533V56.5322H86.9378V58.0361ZM83.012 69.9502C83.012 67.7627 85.3362 66.4834 89.1253 66.4932C92.9241 66.4834 95.2483 67.7627 95.2581 69.9502C95.2483 72.1475 92.9241 73.3975 89.1253 73.3877C85.3362 73.3975 83.012 72.1475 83.012 69.9502ZM85.4925 69.9502C85.4925 70.9365 86.7718 71.4541 89.1253 71.4541C91.4886 71.4541 92.7679 70.9365 92.7776 69.9502C92.7679 68.9346 91.4886 68.4268 89.1253 68.4268C86.7718 68.4268 85.4925 68.9346 85.4925 69.9502ZM89.3792 60.9072V58.876H92.719V55.6143H95.1995V66.0244H92.719V60.9072H89.3792ZM110.532 56.6494C110.532 61.2979 107.593 64.5205 102.388 65.9658L101.411 64.0322C105.249 62.9873 107.456 61.0342 107.866 58.6416H102.368V56.6494H110.532ZM104.517 73.1729V66.2783H116.294V73.1729H104.517ZM106.958 71.2197H113.833V68.2314H106.958V71.2197ZM110.65 61.8838V59.8525H113.814V55.6338H116.294V65.5752H113.814V61.8838H110.65ZM132.691 64.4229V66.3955H127.574V69.4033H134.468V71.3955H118.199V69.4033H125.054V66.3955H120.113V56.8447H132.554V58.8369H122.652V60.6143H132.144V62.5674H122.652V64.4229H132.691ZM149.185 55.6143V59.6572H151.588V61.708H149.185V65.9854H146.685V55.6143H149.185ZM135.611 65.1064V56.6494H138.092V58.915H141.725V56.6494H144.225V65.1064H135.611ZM137.564 73.1533V66.7861H149.283V68.7588H140.045V71.2002H149.615V73.1533H137.564ZM138.092 63.1533H141.725V60.8486H138.092V63.1533ZM166.91 55.6143V73.3877H164.391V55.6143H166.91ZM152.028 68.3486C156.617 66.1807 158.639 63.3682 159.039 59.4229H152.985V57.4697H161.578C161.569 62.8604 159.684 67.3428 153.336 70.3408L152.028 68.3486Z" fill="white"/>
<defs>
<filter id="filter0_d_431_602" x="0.789917" y="0.640381" width="230.698" height="105.022" filterUnits="userSpaceOnUse" color-interpolation-filters="sRGB">
<feFlood flood-opacity="0" result="BackgroundImageFix"/>
<feColorMatrix in="SourceAlpha" type="matrix" values="0 0 0 0 0 0 0 0 0 0 0 0 0 0 0 0 0 0 127 0" result="hardAlpha"/>
<feOffset dy="4"/>
<feGaussianBlur stdDeviation="8"/>
<feComposite in2="hardAlpha" operator="out"/>
<feColorMatrix type="matrix" values="0 0 0 0 0.180392 0 0 0 0 0.470588 0 0 0 0 0.960784 0 0 0 0.36 0"/>
<feBlend mode="normal" in2="BackgroundImageFix" result="effect1_dropShadow_431_602"/>
<feBlend mode="normal" in="SourceGraphic" in2="effect1_dropShadow_431_602" result="shape"/>
</filter>
</defs>
</svg>
