<svg width="221" height="96" viewBox="0 0 221 96" fill="none" xmlns="http://www.w3.org/2000/svg">
<g filter="url(#filter0_d_332_238)">
<path fill-rule="evenodd" clip-rule="evenodd" d="M173.187 11C193.351 11 209.698 27.3466 209.698 47.5111C209.698 67.6756 193.351 84.0222 173.187 84.0222H51.6082C42.5239 84.0222 34.2144 80.7045 27.8254 75.2146C26.259 77.7215 20.2742 81.6787 11.0001 81.6787C13.4472 80.4286 17.6053 75.1318 18.3415 69.4902C18.6274 67.2994 18.802 65.3929 18.9086 63.7709C16.4692 58.8745 15.0971 53.353 15.0971 47.5111C15.0971 27.3466 31.4437 11 51.6083 11H173.187Z" fill="white"/>
<path d="M171.447 63.0335L181.251 63.0335L176.988 67.2831C176.745 67.5263 176.609 67.8562 176.609 68.2002C176.609 68.5442 176.745 68.874 176.988 69.1173C177.232 69.3605 177.562 69.4971 177.906 69.4971C178.249 69.4971 178.579 69.3605 178.823 69.1173L185.281 62.6589C185.399 62.5361 185.491 62.3912 185.552 62.2327C185.681 61.9182 185.681 61.5655 185.552 61.251C185.491 61.0925 185.399 60.9476 185.281 60.8248L178.823 54.3664C178.703 54.2454 178.56 54.1493 178.402 54.0837C178.245 54.0181 178.076 53.9844 177.906 53.9844C177.735 53.9844 177.566 54.0181 177.409 54.0837C177.251 54.1493 177.109 54.2454 176.988 54.3664C176.867 54.4865 176.771 54.6294 176.706 54.7868C176.64 54.9442 176.606 55.113 176.606 55.2835C176.606 55.454 176.64 55.6229 176.706 55.7803C176.771 55.9377 176.867 56.0805 176.988 56.2006L181.251 60.4502L171.447 60.4502C171.105 60.4502 170.776 60.5863 170.534 60.8285C170.292 61.0707 170.156 61.3993 170.156 61.7418C170.156 62.0844 170.292 62.413 170.534 62.6552C170.776 62.8974 171.105 63.0335 171.447 63.0335Z" fill="#2E78F5"/>
<path d="M47.3477 42.1953C44.2422 42.1953 42.0156 40.4863 41.957 38.0156H44.9258C44.9746 39.0703 46 39.7637 47.3672 39.7734C48.7734 39.7637 49.7793 38.9824 49.7695 37.8398C49.7793 36.6875 48.7539 35.877 47.0938 35.8672H45.7852V33.6992H47.0938C48.4902 33.6992 49.4668 32.9375 49.457 31.8242C49.4668 30.7402 48.6367 29.998 47.3867 30.0078C46.1367 29.998 45.1113 30.7012 45.0625 31.7852H42.25C42.2988 29.3535 44.4863 27.6641 47.3867 27.6641C50.3359 27.6641 52.2988 29.4121 52.2891 31.6484C52.2988 33.2305 51.1953 34.3535 49.6133 34.6367V34.7539C51.6934 35.0078 52.8359 36.2676 52.8164 38.0352C52.8359 40.457 50.541 42.1953 47.3477 42.1953ZM70.1508 35.1445V37.0977H63.4516V39.9688H60.9906V37.0977H53.8813V35.1445H70.1508ZM55.7953 43.4844V38.5625H58.2563V41.4922H68.3539V43.4844H55.7953ZM55.9711 33.8945V26.5898H58.432V28.4453H65.5609V26.5898H68.0414V33.8945H55.9711ZM58.432 31.9219H65.5609V30.3008H58.432V31.9219ZM79.8484 27.4883V36.0234H71.3133V27.4883H79.8484ZM73.3641 43.4844V37.7227H75.8445V41.4922H85.532V43.4844H73.3641ZM73.7742 34.0703H77.3875V29.4805H73.7742V34.0703ZM82.3875 38.9922V26.0234H84.8875V31.1406H87.2898V33.1914H84.8875V38.9922H82.3875ZM103.081 26.0234V43.7969H100.698V26.0234H103.081ZM87.8273 33.7188C87.8273 29.7441 89.341 27.2832 91.6945 27.293C93.8332 27.2832 95.298 29.2852 95.5715 32.6055H97.0266V26.2773H99.3703V42.9766H97.0266V34.5781H95.591C95.3762 38.0645 93.882 40.1836 91.6945 40.1836C89.341 40.1836 87.8273 37.7129 87.8273 33.7188ZM90.132 33.7188C90.1125 36.4531 90.6984 37.8008 91.6945 37.7812C92.7199 37.8008 93.3254 36.4531 93.3156 33.7188C93.3254 30.9941 92.7199 29.6367 91.6945 29.6367C90.6984 29.6367 90.1125 30.9941 90.132 33.7188ZM124.977 35.2617V37.2148H108.727V35.2617H124.977ZM110.562 40.3594V38.3867H122.984V43.7969H120.465V40.3594H110.562ZM110.758 34.1484V26.4141H123.082V28.3477H113.258V29.3438H122.672V31.1797H113.258V32.2539H123.238V34.1484H110.758ZM136.139 28.6797V30.6719H125.69V28.6797H129.655V26.2969H132.135V28.6797H136.139ZM126.608 35.9062C126.608 33.4551 128.444 31.6582 130.905 31.668C133.356 31.6582 135.162 33.4551 135.182 35.9062C135.162 38.3281 133.356 40.1348 130.905 40.1445C128.444 40.1348 126.608 38.3281 126.608 35.9062ZM128.932 35.9062C128.922 37.2441 129.772 38.0352 130.905 38.0156C132.037 38.0352 132.887 37.2441 132.877 35.9062C132.887 34.5879 132.037 33.7676 130.905 33.7578C129.772 33.7676 128.922 34.5879 128.932 35.9062ZM135.768 35.0664V33.0547H138.19V26.0234H140.651V43.7969H138.19V35.0664H135.768ZM162.995 34.1484V36.1797H146.745V34.1484H162.995ZM148.601 40.5156C148.601 38.4258 150.945 37.2441 154.831 37.2539C158.689 37.2441 161.003 38.4258 161.023 40.5156C161.003 42.6152 158.689 43.8066 154.831 43.7969C150.945 43.8066 148.601 42.6152 148.601 40.5156ZM148.718 32.8984V26.4922H161.042V28.5039H151.198V30.9258H161.14V32.8984H148.718ZM151.14 40.5156C151.13 41.4531 152.37 41.9023 154.831 41.9023C157.243 41.9023 158.513 41.4531 158.523 40.5156C158.513 39.6172 157.243 39.1484 154.831 39.1484C152.37 39.1484 151.13 39.6172 151.14 40.5156ZM179.88 35.5547V37.5469H163.611V35.5547H170.505V34.2656H165.642V29.3828H175.408V28.2891H165.603V26.3555H177.908V31.1797H168.123V32.3516H178.24V34.2656H172.986V35.5547H179.88ZM165.427 40.5156V38.5625H178.005V43.7188H175.486V40.5156H165.427ZM55.5508 54.0234V60.8398H58.0703V62.8906H55.5508V71.7578H53.0508V54.0234H55.5508ZM41.332 66.7773C45.541 64.668 47.8066 61.8359 48.2754 57.8711H42.3477V55.8398H50.8047C50.7852 61.1523 48.7148 65.752 42.7383 68.6914L41.332 66.7773ZM72.8266 58.4766V60.4688H60.4633V54.2969H62.9438V58.4766H72.8266ZM58.4125 64.0234V61.9922H74.6625V64.0234H58.4125ZM60.268 68.4375C60.268 66.3379 62.6117 65.1465 66.4984 65.1367C70.3559 65.1465 72.6703 66.3379 72.6898 68.4375C72.6703 70.5566 70.3559 71.7383 66.4984 71.7383C62.6117 71.7383 60.268 70.5566 60.268 68.4375ZM62.807 68.4375C62.7973 69.3652 64.0375 69.834 66.4984 69.8438C68.9105 69.834 70.1801 69.3652 70.1898 68.4375C70.1801 67.4902 68.9105 67.0898 66.4984 67.0703C64.0375 67.0898 62.7973 67.4902 62.807 68.4375ZM82.0164 56.4453C82.0066 58.8184 83.2273 61.0156 86.0789 61.8945L84.7703 63.8477C82.8563 63.1836 81.5574 61.9629 80.8055 60.3613C80.0242 62.2168 78.5887 63.6719 76.45 64.3945L75.1414 62.4023C78.1785 61.4258 79.4871 59.043 79.4969 56.5625V54.9414H82.0164V56.4453ZM78.0906 68.3594C78.0906 66.1719 80.4148 64.8926 84.2039 64.9023C88.0027 64.8926 90.327 66.1719 90.3367 68.3594C90.327 70.5566 88.0027 71.8066 84.2039 71.7969C80.4148 71.8066 78.0906 70.5566 78.0906 68.3594ZM80.5711 68.3594C80.5711 69.3457 81.8504 69.8633 84.2039 69.8633C86.5672 69.8633 87.8465 69.3457 87.8563 68.3594C87.8465 67.3438 86.5672 66.8359 84.2039 66.8359C81.8504 66.8359 80.5711 67.3438 80.5711 68.3594ZM84.4578 59.3164V57.2852H87.7977V54.0234H90.2781V64.4336H87.7977V59.3164H84.4578ZM105.611 55.0586C105.611 59.707 102.671 62.9297 97.4664 64.375L96.4898 62.4414C100.328 61.3965 102.535 59.4434 102.945 57.0508H97.4469V55.0586H105.611ZM99.5953 71.582V64.6875H111.373V71.582H99.5953ZM102.037 69.6289H108.912V66.6406H102.037V69.6289ZM105.728 60.293V58.2617H108.892V54.043H111.373V63.9844H108.892V60.293H105.728ZM127.77 62.832V64.8047H122.652V67.8125H129.547V69.8047H113.277V67.8125H120.133V64.8047H115.191V55.2539H127.633V57.2461H117.73V59.0234H127.223V60.9766H117.73V62.832H127.77ZM144.264 54.0234V58.0664H146.666V60.1172H144.264V64.3945H141.764V54.0234H144.264ZM130.69 63.5156V55.0586H133.17V57.3242H136.803V55.0586H139.303V63.5156H130.69ZM132.643 71.5625V65.1953H144.362V67.168H135.123V69.6094H144.694V71.5625H132.643ZM133.17 61.5625H136.803V59.2578H133.17V61.5625ZM161.989 54.0234V71.7969H159.47V54.0234H161.989ZM147.106 66.7578C151.696 64.5898 153.718 61.7773 154.118 57.832H148.063V55.8789H156.657C156.647 61.2695 154.762 65.752 148.415 68.75L147.106 66.7578Z" fill="#2E78F5"/>
</g>
<defs>
<filter id="filter0_d_332_238" x="9.15527e-05" y="0" width="220.698" height="95.0222" filterUnits="userSpaceOnUse" color-interpolation-filters="sRGB">
<feFlood flood-opacity="0" result="BackgroundImageFix"/>
<feColorMatrix in="SourceAlpha" type="matrix" values="0 0 0 0 0 0 0 0 0 0 0 0 0 0 0 0 0 0 127 0" result="hardAlpha"/>
<feOffset/>
<feGaussianBlur stdDeviation="5.5"/>
<feComposite in2="hardAlpha" operator="out"/>
<feColorMatrix type="matrix" values="0 0 0 0 0 0 0 0 0 0 0 0 0 0 0 0 0 0 0.25 0"/>
<feBlend mode="normal" in2="BackgroundImageFix" result="effect1_dropShadow_332_238"/>
<feBlend mode="normal" in="SourceGraphic" in2="effect1_dropShadow_332_238" result="shape"/>
</filter>
</defs>
</svg>
