<svg width="25" height="25" viewBox="0 0 25 25" fill="none" xmlns="http://www.w3.org/2000/svg">
<path d="M12.8337 12.8357C13.3673 12.3739 13.7952 11.8026 14.0886 11.1607C14.3819 10.5189 14.5337 9.82143 14.5337 9.11572C14.5337 7.78964 14.0069 6.51787 13.0692 5.58019C12.1315 4.64251 10.8598 4.11572 9.53369 4.11572C8.20761 4.11572 6.93584 4.64251 5.99816 5.58019C5.06048 6.51787 4.53369 7.78964 4.53369 9.11572C4.53368 9.82143 4.68549 10.5189 4.97882 11.1607C5.27214 11.8026 5.70011 12.3739 6.23369 12.8357C4.83383 13.4696 3.64616 14.4933 2.81267 15.7843C1.97919 17.0753 1.53516 18.579 1.53369 20.1157C1.53369 20.3809 1.63905 20.6353 1.82658 20.8228C2.01412 21.0104 2.26847 21.1157 2.53369 21.1157C2.79891 21.1157 3.05326 21.0104 3.2408 20.8228C3.42833 20.6353 3.53369 20.3809 3.53369 20.1157C3.53369 18.5244 4.16583 16.9983 5.29105 15.8731C6.41627 14.7479 7.94239 14.1157 9.53369 14.1157C11.125 14.1157 12.6511 14.7479 13.7763 15.8731C14.9016 16.9983 15.5337 18.5244 15.5337 20.1157C15.5337 20.3809 15.639 20.6353 15.8266 20.8228C16.0141 21.0104 16.2685 21.1157 16.5337 21.1157C16.7989 21.1157 17.0533 21.0104 17.2408 20.8228C17.4283 20.6353 17.5337 20.3809 17.5337 20.1157C17.5322 18.579 17.0882 17.0753 16.2547 15.7843C15.4212 14.4933 14.2336 13.4696 12.8337 12.8357ZM9.53369 12.1157C8.94035 12.1157 8.36033 11.9398 7.86698 11.6101C7.37363 11.2805 6.98912 10.812 6.76205 10.2638C6.53499 9.71559 6.47558 9.11239 6.59134 8.53045C6.70709 7.94851 6.99281 7.41396 7.41237 6.9944C7.83193 6.57485 8.36648 6.28912 8.94842 6.17337C9.53036 6.05761 10.1336 6.11702 10.6817 6.34408C11.2299 6.57115 11.6985 6.95566 12.0281 7.44901C12.3577 7.94236 12.5337 8.52238 12.5337 9.11572C12.5337 9.91137 12.2176 10.6744 11.655 11.237C11.0924 11.7997 10.3293 12.1157 9.53369 12.1157ZM19.2737 12.4357C19.9137 11.7151 20.3317 10.8248 20.4775 9.87206C20.6233 8.91935 20.4906 7.9448 20.0955 7.06572C19.7003 6.18665 19.0595 5.44052 18.2502 4.91715C17.4408 4.39377 16.4975 4.11547 15.5337 4.11572C15.2685 4.11572 15.0141 4.22108 14.8266 4.40862C14.639 4.59615 14.5337 4.85051 14.5337 5.11572C14.5337 5.38094 14.639 5.63529 14.8266 5.82283C15.0141 6.01037 15.2685 6.11572 15.5337 6.11572C16.3293 6.11572 17.0924 6.43179 17.655 6.9944C18.2176 7.55701 18.5337 8.32007 18.5337 9.11572C18.5323 9.64096 18.393 10.1566 18.1298 10.6111C17.8665 11.0657 17.4886 11.4431 17.0337 11.7057C16.8854 11.7912 16.7616 11.9134 16.6741 12.0605C16.5865 12.2075 16.5382 12.3746 16.5337 12.5457C16.5295 12.7155 16.5686 12.8835 16.6474 13.034C16.7261 13.1844 16.8418 13.3124 16.9837 13.4057L17.3737 13.6657L17.5037 13.7357C18.7091 14.3074 19.726 15.2117 20.4347 16.342C21.1433 17.4724 21.5142 18.7817 21.5037 20.1157C21.5037 20.3809 21.609 20.6353 21.7966 20.8228C21.9841 21.0104 22.2385 21.1157 22.5037 21.1157C22.7689 21.1157 23.0233 21.0104 23.2108 20.8228C23.3983 20.6353 23.5037 20.3809 23.5037 20.1157C23.5119 18.5812 23.1275 17.07 22.3872 15.7258C21.6468 14.3816 20.575 13.249 19.2737 12.4357Z" fill="white"/>
</svg>
